<svg  viewBox="0 0 1467 867" fill="none" preserveAspectRatio="none" xmlns="http://www.w3.org/2000/svg">
<g filter="url(#filter0_d_141_1863)">
<path d="M767.92 22.48H523.03C490.64 22.48 464.38 24.7 464.38 57.09V98.79C464.38 104.23 459.98 108.65 454.54 108.66L51.1996 109.04C30.8296 109.1 14.3496 125.62 14.3496 145.99V860.67H1452.86V160.57C1452.86 128.18 1426.6 109.92 1394.21 109.92H947.77C934.39 109.92 921.42 105.35 910.99 96.96L804.69 35.44C794.27 27.05 781.29 22.48 767.91 22.48H767.92Z" fill="white"/>
<path d="M767.92 22.48H523.03C490.64 22.48 464.38 24.7 464.38 57.09V98.79C464.38 104.23 459.98 108.65 454.54 108.66L51.1996 109.04C30.8296 109.1 14.3496 125.62 14.3496 145.99V860.67H1452.86V160.57C1452.86 128.18 1426.6 109.92 1394.21 109.92H947.77C934.39 109.92 921.42 105.35 910.99 96.96L804.69 35.44C794.27 27.05 781.29 22.48 767.91 22.48H767.92Z" stroke="black" stroke-width="3" stroke-miterlimit="10"/>
</g>
<defs>
<filter id="filter0_d_141_1863" x="0.849609" y="0.97998" width="1465.51" height="865.19" filterUnits="userSpaceOnUse" color-interpolation-filters="sRGB">
<feFlood flood-opacity="0" result="BackgroundImageFix"/>
<feColorMatrix in="SourceAlpha" type="matrix" values="0 0 0 0 0 0 0 0 0 0 0 0 0 0 0 0 0 0 127 0" result="hardAlpha"/>
<feOffset dy="-8"/>
<feGaussianBlur stdDeviation="6"/>
<feColorMatrix type="matrix" values="0 0 0 0 0 0 0 0 0 0 0 0 0 0 0 0 0 0 0.3 0"/>
<feBlend mode="normal" in2="BackgroundImageFix" result="effect1_dropShadow_141_1863"/>
<feBlend mode="normal" in="SourceGraphic" in2="effect1_dropShadow_141_1863" result="shape"/>
</filter>
</defs>
</svg>
