<svg  viewBox="0 0 1467 897" preserveAspectRatio="none" fill="none" xmlns="http://www.w3.org/2000/svg">
<g filter="url(#filter0_d_141_1861)">
<path d="M567.91 22.48H323.02C290.63 22.48 264.37 24.7 264.37 57.09V98.79C264.37 104.23 259.97 108.65 254.53 108.66L51.1996 109.04C30.8296 109.1 14.3496 125.62 14.3496 145.99V890.67H1452.86V160.57C1452.86 128.18 1426.6 109.92 1394.21 109.92H747.76C734.38 109.92 721.41 105.35 710.98 96.96L604.68 35.44C594.26 27.05 581.28 22.48 567.9 22.48H567.91Z" fill="white"/>
<path d="M567.91 22.48H323.02C290.63 22.48 264.37 24.7 264.37 57.09V98.79C264.37 104.23 259.97 108.65 254.53 108.66L51.1996 109.04C30.8296 109.1 14.3496 125.62 14.3496 145.99V890.67H1452.86V160.57C1452.86 128.18 1426.6 109.92 1394.21 109.92H747.76C734.38 109.92 721.41 105.35 710.98 96.96L604.68 35.44C594.26 27.05 581.28 22.48 567.9 22.48H567.91Z" stroke="black" stroke-width="3" stroke-miterlimit="10"/>
</g>
<defs>
<filter id="filter0_d_141_1861" x="0.849609" y="0.97998" width="1465.51" height="895.19" filterUnits="userSpaceOnUse" color-interpolation-filters="sRGB">
<feFlood flood-opacity="0" result="BackgroundImageFix"/>
<feColorMatrix in="SourceAlpha" type="matrix" values="0 0 0 0 0 0 0 0 0 0 0 0 0 0 0 0 0 0 127 0" result="hardAlpha"/>
<feOffset dy="-8"/>
<feGaussianBlur stdDeviation="6"/>
<feColorMatrix type="matrix" values="0 0 0 0 0 0 0 0 0 0 0 0 0 0 0 0 0 0 0.3 0"/>
<feBlend mode="normal" in2="BackgroundImageFix" result="effect1_dropShadow_141_1861"/>
<feBlend mode="normal" in="SourceGraphic" in2="effect1_dropShadow_141_1861" result="shape"/>
</filter>
</defs>
</svg>
