<svg width="788" height="143" viewBox="0 0 788 143" fill="none" xmlns="http://www.w3.org/2000/svg">
<g clip-path="url(#clip0_9_104)">
<path d="M25.85 29.37V1H108.93L123.11 15.18V49.63L115 57.74L123.11 65.85V100.22L108.93 114.4L25.85 114.48V35.45H58.27V43.56L90.69 43.48V29.38H25.85V29.37ZM58.27 86.11L90.69 86.03V71.93H58.27V86.11Z" fill="#F2F2F2" stroke="black" stroke-width="2"/>
<path d="M176.29 86.11L167.7 114.48H135.28L169.72 1H218.35L252.8 114.48H220.38L211.79 86.11H176.29ZM194.04 27.67L184.96 57.74H203.2L194.04 27.67Z" fill="#F2F2F2" stroke="black" stroke-width="2"/>
<path d="M301.44 30.26V114.48H269.02V1H319.68L358.18 70.54V1.08H390.6V114.48H348.05L301.44 30.26Z" fill="#F2F2F2" stroke="black" stroke-width="2"/>
<path d="M504.07 100.29L489.89 114.47H420.99L406.81 100.29V15.18L420.91 1H504.07V29.37H439.23V86.11H471.65V71.93H455.44V43.56H504.07V100.3V100.29Z" fill="#F2F2F2" stroke="black" stroke-width="2"/>
<path d="M568.67 71.92H552.7V114.47H520.28V1H603.36L617.54 15.18V57.65L604.57 70.62L621.59 114.47H585.12L568.67 71.92ZM552.71 43.55L585.13 43.47V29.37H552.71V43.55Z" fill="#F2F2F2" stroke="black" stroke-width="2"/>
<path d="M698.6 1H731.02V100.21L716.84 114.39L647.94 114.47L633.76 100.29V1H666.18V86.11L698.6 86.03V1Z" fill="#F2F2F2" stroke="black" stroke-width="2"/>
<path d="M779.66 114.48H747.24V1H779.66V114.48Z" fill="#F2F2F2" stroke="black" stroke-width="2"/>
<path d="M31.85 35.37V7H114.93L129.11 21.18V55.63L121 63.74L129.11 71.85V106.22L114.93 120.4L31.85 120.48V41.45H64.27V49.56L96.69 49.48V35.38H31.85V35.37ZM64.27 92.11L96.69 92.03V77.93H64.27V92.11Z" fill="#F2F2F2" stroke="black" stroke-width="3"/>
<path d="M182.29 92.11L173.7 120.48H141.28L175.72 7H224.35L258.8 120.48H226.38L217.79 92.11H182.29ZM200.04 33.67L190.96 63.74H209.2L200.04 33.67Z" fill="#F2F2F2" stroke="black" stroke-width="3"/>
<path d="M307.44 36.26V120.48H275.02V7H325.68L364.18 76.54V7.08H396.6V120.48H354.05L307.44 36.26Z" fill="#F2F2F2" stroke="black" stroke-width="3"/>
<path d="M510.07 106.29L495.89 120.47H426.99L412.81 106.29V21.19L426.91 7.01001H510.07V35.38H445.23V92.12H477.65V77.94H461.44V49.57H510.07V106.31V106.29Z" fill="#F2F2F2" stroke="black" stroke-width="3"/>
<path d="M574.67 77.92H558.7V120.47H526.28V7H609.36L623.54 21.18V63.65L610.57 76.62L627.59 120.47H591.12L574.67 77.92ZM558.71 49.55L591.13 49.47V35.37H558.71V49.55Z" fill="#F2F2F2" stroke="black" stroke-width="3"/>
<path d="M704.6 7H737.02V106.21L722.84 120.39L653.94 120.47L639.76 106.29V7H672.18V92.11L704.6 92.03V7Z" fill="#F2F2F2" stroke="black" stroke-width="3"/>
<path d="M785.66 120.48H753.24V7H785.66V120.48Z" fill="#F2F2F2" stroke="black" stroke-width="3"/>
<path d="M20.45 100.14L14.94 102.11C13.82 102.51 9.87 105.41 8.73 106.34C-0.359999 113.75 -1.46 125.29 1.39 135.48C2.27 138.65 3.76 145.42 8.42 141.88C9.41 141.13 10.52 135.32 11.39 133.51C14.64 126.69 20.98 123.6 27.9 120.94L31.43 130.8C31.47 130.91 32.86 132.3 33.09 132.42C34.6 133.21 37.04 131.96 38.03 130.67L53.27 102.57C54.35 100.45 53.06 98.8299 51.19 97.7799C41.77 94.9599 32.18 89.2399 22.89 86.5299C12.67 83.5499 19.05 96.1199 20.47 100.15L20.45 100.14Z" fill="black"/>
</g>
<defs>
<clipPath id="clip0_9_104">
<rect width="787.16" height="142.88" fill="white"/>
</clipPath>
</defs>
</svg>
