<svg width="1207" height="192" viewBox="0 0 1207 192" fill="none" xmlns="http://www.w3.org/2000/svg">
<path d="M1 46.0014V1.01587H132.738L155.223 23.5007V78.1271L142.363 90.9869L155.223 103.847V158.346L132.738 180.831L1 180.958V55.6423H52.4075V68.5021L103.815 68.3752V46.0173H1V46.0014ZM52.4075 135.957L103.815 135.83V113.472H52.4075V135.957Z" fill="#F2F2F2" stroke="black" stroke-width="2"/>
<path d="M239.548 135.957L225.927 180.942H174.52L229.146 1H306.257L360.884 180.942H309.476L295.855 135.957H239.564H239.548ZM267.694 43.2899L253.296 90.9711H282.218L267.694 43.2899Z" fill="#F2F2F2" stroke="black" stroke-width="2"/>
<path d="M437.994 47.4127V180.958H386.587V1.01587H466.917L527.966 111.284V1.14272H579.373V180.958H511.903L437.994 47.4127Z" fill="#F2F2F2" stroke="black" stroke-width="2"/>
<path d="M759.302 158.457L736.817 180.942H627.564L605.079 158.457V23.5007L627.437 1.01587H759.302V46.0014H656.487V135.972H707.894V113.488H682.19V68.5021H759.302V158.473V158.457Z" fill="#F2F2F2" stroke="black" stroke-width="2"/>
<path d="M861.736 113.472H836.412V180.942H785.005V1.01587H916.743L939.227 23.5007V90.8442L918.661 111.41L945.649 180.942H887.82L861.736 113.472ZM836.428 68.4862L887.836 68.3594V46.0014H836.428V68.4862Z" fill="#F2F2F2" stroke="black" stroke-width="2"/>
<path d="M1067.78 1.01587H1119.18V158.33L1096.7 180.815L987.447 180.942L964.962 158.457V1.01587H1016.37V135.972L1067.78 135.846V1.01587Z" fill="#F2F2F2" stroke="black" stroke-width="2"/>
<path d="M1196.3 180.942H1144.89V1.01587H1196.3V180.958V180.942Z" fill="#F2F2F2" stroke="black" stroke-width="2"/>
<path d="M10.5132 55.5154V10.5299H142.251L164.736 33.0147V87.6412L151.876 100.501L164.736 113.361V167.86L142.251 190.345L10.5132 190.472V65.1563H61.9206V78.0161L113.328 77.8893V55.5313H10.5132V55.5154ZM61.9206 145.471L113.328 145.344V122.986H61.9206V145.471Z" fill="#F2F2F2" stroke="black" stroke-width="3"/>
<path d="M249.062 145.471L235.441 190.456H184.033L238.66 10.514H315.771L370.397 190.456H318.99L305.369 145.471H249.078H249.062ZM277.207 52.8039L262.81 100.485H291.732L277.207 52.8039Z" fill="#F2F2F2" stroke="black" stroke-width="3"/>
<path d="M447.509 56.9267V190.472H396.102V10.5299H476.432L537.48 120.798V10.6568H588.888V190.472H521.417L447.509 56.9267Z" fill="#F2F2F2" stroke="black" stroke-width="3"/>
<path d="M768.813 167.971L746.328 190.456H637.076L614.591 167.971V33.0147L636.949 10.5299H768.813V55.5154H665.998V145.487H717.406V123.002H691.702V78.0161H768.813V167.987V167.971Z" fill="#F2F2F2" stroke="black" stroke-width="3"/>
<path d="M871.265 122.986H845.942V190.456H794.534V10.5299H926.272L948.757 33.0147V100.358L928.191 120.924L955.179 190.456H897.349L871.265 122.986ZM845.942 78.0003L897.349 77.8734V55.5154H845.942V78.0003Z" fill="#F2F2F2" stroke="black" stroke-width="3"/>
<path d="M1077.29 10.5299H1128.7V167.845L1106.21 190.329L996.961 190.456L974.476 167.971V10.5299H1025.88V145.487L1077.29 145.36V10.5299Z" fill="#F2F2F2" stroke="black" stroke-width="3"/>
<path d="M1205.81 190.456H1154.4V10.5299H1205.81V190.472V190.456Z" fill="#F2F2F2" stroke="black" stroke-width="3"/>
</svg>
