<svg width="1045" height="129" viewBox="0 0 1045 129" fill="none" xmlns="http://www.w3.org/2000/svg">
<path d="M25.79 32.13L34.42 0H128.51L140.26 16.06L114.47 112.35L94.09 128.41L0 128.5L23.96 39.01H60.68L45.35 96.38L82.07 96.29L99.24 32.12H25.79V32.13Z" fill="black"/>
<path d="M189.19 39.01L186.71 48.19H223.52L214.89 80.32H178.17L173.86 96.38H238.21L229.49 128.51H128.51L152.56 39.01H189.19ZM154.4 32.13L163.03 0H264.01L255.29 32.13H154.41H154.4Z" fill="black"/>
<path d="M308.62 39.01L306.14 48.19H363.51L375.35 64.25L362.41 112.44L342.03 128.5H247.94L256.57 96.37H330.01L334.32 80.31H276.95L265.2 64.25L271.9 39.01H308.62ZM273.74 32.13L278.05 16.07L298.34 0H392.52L383.89 32.13H273.73H273.74Z" fill="black"/>
<path d="M413.18 128.52H376.46L410.88 0H447.6L413.18 128.52Z" fill="black"/>
<path d="M492.21 39.01L476.88 96.38H513.6L517.91 80.32H499.55L508.09 48.19H563.17L546 112.45L525.62 128.51H447.59L435.84 112.45L455.48 39.01H492.2H492.21ZM457.33 32.13L461.64 16.07L481.93 0H576.11L567.48 32.13H457.32H457.33Z" fill="black"/>
<path d="M620.73 39.01L596.77 128.51H560.05L584.01 39.01H620.73ZM585.85 32.13L594.48 0H651.85L674.34 78.76L695.45 0.09H732.17L697.75 128.51H649.56L622.57 32.12H585.85V32.13Z" fill="black"/>
<path d="M724.74 96.39H761.46L752.83 128.52H716.11L724.74 96.39Z" fill="black"/>
<path d="M885.66 112.45L865.37 128.51H771.19L779.82 96.38H853.26L857.57 80.32H800.2L788.45 64.26L801.3 16.07L821.68 0.0100098H899.71L911.46 16.07L885.67 112.46L885.66 112.45ZM866.1 48.19L870.41 32.13H833.69L829.38 48.19H866.1Z" fill="black"/>
<path d="M912.64 80.32L934.12 0H1044.28L1035.65 32.13H962.21L957.9 48.19H1015.27L1027.11 64.25L1014.17 112.44L993.79 128.5H915.76L904.01 112.44L908.32 96.38H981.76L986.07 80.32H912.63H912.64Z" fill="black"/>
</svg>
