<svg width="397" height="66" viewBox="0 0 397 66" fill="none" xmlns="http://www.w3.org/2000/svg">
<path d="M59.2173 4.16846H0V62.0362H59.2173V4.16846Z" fill="black"/>
<path d="M127.334 5.55792H95.2508L79.1992 32.7113L95.2508 59.8647H127.334L143.386 32.7113L127.334 5.55792Z" stroke="black" stroke-miterlimit="10"/>
<path d="M194.864 2.77893L174.245 10.1166L163.263 28.6865L167.077 49.8167L183.892 63.5994H205.846L222.661 49.8167L226.465 28.6865L215.493 10.1166L194.864 2.77893Z" fill="black"/>
<path d="M285.933 2.77893H269.329L254.944 10.8916L246.632 24.949V41.1743L254.944 55.2317L269.329 63.3541H285.933L300.318 55.2317L308.63 41.1743V24.949L300.318 10.8916L285.933 2.77893Z" stroke="black" stroke-miterlimit="10"/>
<path d="M362.38 66C381.03 66 396.15 51.2254 396.15 33C396.15 14.7746 381.03 0 362.38 0C343.73 0 328.61 14.7746 328.61 33C328.61 51.2254 343.73 66 362.38 66Z" fill="black"/>
</svg>
